<svg width="47" height="42" viewBox="0 0 47 42" fill="none" xmlns="http://www.w3.org/2000/svg">
<path d="M46.0524 21.0869C46.0524 18.2121 43.8396 15.8466 41.0281 15.5995L37.7945 10.1974C38.725 9.21053 39.2968 7.88099 39.2968 6.42025C39.2968 3.3817 36.825 0.909923 33.7865 0.909923C31.7874 0.909923 30.0355 1.9806 29.0698 3.57659H17.1698C16.2041 1.9806 14.4522 0.909923 12.4531 0.909923C9.4146 0.909923 6.94282 3.3817 6.94282 6.42025C6.94282 7.88109 7.51471 9.21054 8.44514 10.1974L5.21153 15.5995C2.4001 15.8466 0.187267 18.2121 0.187267 21.0869C0.187267 23.9617 2.4001 26.3272 5.21153 26.5743L8.44514 31.9765C7.51471 32.9633 6.94282 34.2927 6.94282 35.7536C6.94282 38.7921 9.4146 41.2639 12.4531 41.2639C14.4522 41.2639 16.2041 40.1932 17.1698 38.5972H29.0698C30.0355 40.1932 31.7874 41.2639 33.7865 41.2639C36.825 41.2639 39.2968 38.7921 39.2968 35.7536C39.2968 34.2927 38.7249 32.9633 37.7945 31.9765L41.028 26.5743C43.8395 26.3273 46.0524 23.9617 46.0524 21.0869ZM33.7865 3.93057C35.1591 3.93057 36.2762 5.0476 36.2762 6.42025C36.2762 7.7929 35.1591 8.90992 33.7865 8.90992C32.4138 8.90992 31.2968 7.7929 31.2968 6.42025C31.2968 5.0476 32.4138 3.93057 33.7865 3.93057ZM26.0281 19.5767L31.6952 11.5169C32.8056 11.9743 34.0342 12.0557 35.2005 11.7452L37.8995 16.2542C36.6219 16.9554 35.6501 18.1475 35.2422 19.5767H26.0281ZM17.9607 6.59724H28.279C28.315 7.73188 28.6964 8.7809 29.3202 9.64299L23.1198 18.4611L16.9194 9.64299C17.5433 8.7809 17.9246 7.73188 17.9607 6.59724ZM12.4531 3.93057C13.8258 3.93057 14.9428 5.0476 14.9428 6.42025C14.9428 7.7929 13.8258 8.90992 12.4531 8.90992C11.0805 8.90992 9.96347 7.7929 9.96347 6.42025C9.96347 5.0476 11.0805 3.93057 12.4531 3.93057ZM8.34012 16.2542L11.0391 11.7451C12.2041 12.0553 13.4327 11.9748 14.5444 11.5169L20.2115 19.5766H10.9974C10.5895 18.1475 9.61769 16.9554 8.34012 16.2542ZM5.69759 23.5766C4.32494 23.5766 3.20792 22.4596 3.20792 21.0869C3.20792 19.7143 4.32494 18.5972 5.69759 18.5972C7.07024 18.5972 8.18727 19.7143 8.18727 21.0869C8.18727 22.4596 7.07024 23.5766 5.69759 23.5766ZM12.4531 38.2433C11.0805 38.2433 9.96347 37.1262 9.96347 35.7536C9.96347 34.3809 11.0805 33.2639 12.4531 33.2639C13.8258 33.2639 14.9428 34.3809 14.9428 35.7536C14.9428 37.1262 13.8258 38.2433 12.4531 38.2433ZM20.2115 22.5972L14.5444 30.657C13.434 30.1995 12.2054 30.1182 11.0391 30.4286L8.34012 25.9197C9.61769 25.2185 10.5895 24.0264 10.9974 22.5972H20.2115ZM17.9607 35.5766C17.9246 34.4419 17.5433 33.3929 16.9194 32.5308L23.1198 23.7128L29.3202 32.5308C28.6964 33.3929 28.315 34.4419 28.279 35.5766H17.9607ZM33.7865 38.2433C32.4138 38.2433 31.2968 37.1262 31.2968 35.7536C31.2968 34.3809 32.4138 33.2639 33.7865 33.2639C35.1591 33.2639 36.2762 34.3809 36.2762 35.7536C36.2762 37.1262 35.1591 38.2433 33.7865 38.2433ZM37.8995 25.9196L35.2005 30.4286C34.0356 30.1185 32.8069 30.199 31.6952 30.657L26.0281 22.5972H35.2422C35.6501 24.0263 36.6219 25.2184 37.8995 25.9196ZM40.542 23.5766C39.1694 23.5766 38.0524 22.4596 38.0524 21.0869C38.0524 19.7143 39.1694 18.5972 40.542 18.5972C41.9147 18.5972 43.0317 19.7143 43.0317 21.0869C43.0317 22.4596 41.9147 23.5766 40.542 23.5766Z" fill="#2185D0" stroke="#2185D0" stroke-width="0.353982"/>
</svg>
