<svg width="51" height="37" viewBox="0 0 51 37" fill="none" xmlns="http://www.w3.org/2000/svg">
<path d="M39.4612 19.4296H43.6914C44.3209 19.4296 44.8275 18.926 44.8275 18.2964V2.35091C44.8275 1.7214 44.3209 1.21777 43.6914 1.21777H7.40711C6.77753 1.21777 6.27093 1.7214 6.27093 2.35091V18.2474C6.27093 18.8769 6.77753 19.3805 7.40711 19.3805H11.6373V22.0252C11.6373 22.6679 12.153 23.0967 12.6967 23.1569L12.7104 23.1584H12.7242H24.4377V27.9659C23.0772 28.3604 22.0365 29.3972 21.6402 30.7538H8.73203C8.13195 28.6752 6.04307 27.4071 3.90313 27.9149C1.70542 28.4364 0.336698 30.5795 0.862215 32.7791C1.38585 34.9708 3.53667 36.3331 5.7417 35.8099L5.74245 35.8098C7.18851 35.4619 8.3601 34.3978 8.73728 32.971H21.5904C22.1905 35.0496 24.2793 36.3177 26.4193 35.8099L26.42 35.8098C27.8661 35.4619 29.0377 34.3978 29.4149 32.971H42.268C42.8681 35.0496 44.9569 36.3177 47.0969 35.8099C49.2931 35.2888 50.6615 33.1482 50.1388 30.9502C49.7684 29.1154 48.1381 27.81 46.2514 27.81C44.433 27.81 42.8067 29.0227 42.3158 30.7538H29.4582C29.062 29.3972 28.0213 28.3604 26.6608 27.9659V23.1584H38.325C38.968 23.1584 39.3991 22.6455 39.4597 22.102L39.4612 22.0882V22.0743V19.4296ZM8.49406 3.48405H42.5552V17.1633H8.49406V3.48405ZM13.8604 19.3805H37.2381V20.9412H13.8604V19.3805ZM4.7978 33.6976C3.75348 33.6976 2.93081 32.8765 2.93081 31.8379C2.93081 30.7993 3.75348 29.9782 4.7978 29.9782C5.84211 29.9782 6.66479 30.7993 6.66479 31.8379C6.66479 32.8765 5.84211 33.6976 4.7978 33.6976ZM25.5246 33.6976C24.4803 33.6976 23.6576 32.8765 23.6576 31.8379C23.6576 30.7993 24.4803 29.9782 25.5246 29.9782C26.5689 29.9782 27.3916 30.7993 27.3916 31.8379C27.3916 32.8765 26.5689 33.6976 25.5246 33.6976ZM46.2514 33.6976C45.2071 33.6976 44.3844 32.8765 44.3844 31.8379C44.3844 30.7993 45.2071 29.9782 46.2514 29.9782C47.294 29.9782 48.1157 30.7965 48.1184 31.8327C48.0719 32.8827 47.2394 33.6976 46.2514 33.6976Z" fill="#2185D0" stroke="#2185D0" stroke-width="0.5"/>
<path d="M18.8067 14.208H18.9812L19.0413 14.0442L21.7951 6.5501L21.9187 6.21387H21.5605H19.9082H19.7279L19.671 6.38498L18.0494 11.2616L16.3389 6.38118L16.2802 6.21387H16.103H14.4507H14.0947L14.2155 6.54871L16.9192 14.0428L16.9788 14.208H17.1544H18.8067Z" fill="#2185D0" stroke="#2185D0" stroke-width="0.5"/>
<path d="M23.4824 6.46387V6.21387H23.2324V6.46387V13.958V14.208H23.4824H24.9589H25.2089V13.958V11.3977H26.7688C28.092 11.3977 29.305 10.3545 29.305 8.78113C29.305 8.37272 29.1884 7.73562 28.7779 7.19413C28.3578 6.64006 27.6504 6.21387 26.5307 6.21387H26.5273H26.5239H26.5204H26.5169H26.5134H26.5098H26.5062H26.5025H26.4988H26.495H26.4912H26.4874H26.4835H26.4796H26.4756H26.4716H26.4676H26.4635H26.4594H26.4552H26.451H26.4468H26.4425H26.4382H26.4338H26.4294H26.425H26.4205H26.416H26.4114H26.4069H26.4022H26.3976H26.3929H26.3881H26.3834H26.3785H26.3737H26.3688H26.3639H26.3589H26.354H26.3489H26.3439H26.3388H26.3336H26.3285H26.3233H26.318H26.3128H26.3075H26.3021H26.2968H26.2914H26.2859H26.2805H26.275H26.2694H26.2639H26.2583H26.2527H26.247H26.2413H26.2356H26.2298H26.224H26.2182H26.2124H26.2065H26.2006H26.1947H26.1887H26.1827H26.1767H26.1706H26.1645H26.1584H26.1523H26.1461H26.1399H26.1337H26.1274H26.1212H26.1149H26.1085H26.1022H26.0958H26.0894H26.0829H26.0765H26.07H26.0634H26.0569H26.0503H26.0437H26.0371H26.0305H26.0238H26.0171H26.0104H26.0036H25.9969H25.9901H25.9833H25.9764H25.9696H25.9627H25.9558H25.9489H25.9419H25.9349H25.928H25.9209H25.9139H25.9068H25.8998H25.8927H25.8855H25.8784H25.8712H25.8641H25.8569H25.8496H25.8424H25.8351H25.8279H25.8206H25.8132H25.8059H25.7986H25.7912H25.7838H25.7764H25.769H25.7615H25.7541H25.7466H25.7391H25.7316H25.7241H25.7165H25.709H25.7014H25.6938H25.6862H25.6786H25.6709H25.6633H25.6556H25.6479H25.6403H25.6325H25.6248H25.6171H25.6093H25.6016H25.5938H25.586H25.5782H25.5704H25.5626H25.5547H25.5469H25.539H25.5312H25.5233H25.5154H25.5075H25.4996H25.4916H25.4837H25.4758H25.4678H25.4598H25.4519H25.4439H25.4359H25.4279H25.4199H25.4118H25.4038H25.3958H25.3877H25.3797H25.3716H25.3636H25.3555H25.3474H25.3393H25.3312H25.3231H25.315H25.3069H25.2988H25.2906H25.2825H25.2744H25.2662H25.2581H25.2499H25.2418H25.2336H25.2255H25.2173H25.2091H25.201H25.1928H25.1846H25.1764H25.1682H25.16H25.1519H25.1437H25.1355H25.1273H25.1191H25.1109H25.1027H25.0945H25.0863H25.0781H25.0699H25.0617H25.0535H25.0453H25.0371H25.0289H25.0207H25.0125H25.0043H24.9961H24.9879H24.9797H24.9715H24.9633H24.9551H24.9469H24.9388H24.9306H24.9224H24.9142H24.9061H24.8979H24.8897H24.8816H24.8734H24.8653H24.8571H24.849H24.8409H24.8328H24.8246H24.8165H24.8084H24.8003H24.7922H24.7841H24.776H24.768H24.7599H24.7518H24.7438H24.7357H24.7277H24.7197H24.7116H24.7036H24.6956H24.6876H24.6796H24.6717H24.6637H24.6557H24.6478H24.6398H24.6319H24.624H24.6161H24.6082H24.6003H24.5924H24.5846H24.5767H24.5689H24.5611H24.5532H24.5454H24.5376H24.5299H24.5221H24.5144H24.5066H24.4989H24.4912H24.4835H24.4758H24.4681H24.4605H24.4528H24.4452H24.4376H24.43H24.4224H24.4149H24.4073H24.3998H24.3923H24.3848H24.3773H24.3699H24.3624H24.355H24.3476H24.3402H24.3328H24.3254H24.3181H24.3108H24.3035H24.2962H24.2889H24.2817H24.2745H24.2673H24.2601H24.2529H24.2458H24.2386H24.2315H24.2245H24.2174H24.2104H24.2033H24.1963H24.1894H24.1824H24.1755H24.1686H24.1617H24.1548H24.148H24.1412H24.1344H24.1276H24.1208H24.1141H24.1074H24.1007H24.0941H24.0875H24.0809H24.0743H24.0677H24.0612H24.0547H24.0482H24.0418H24.0354H24.029H24.0226H24.0163H24.01H24.0037H23.9974H23.9912H23.985H23.9788H23.9727H23.9665H23.9605H23.9544H23.9484H23.9424H23.9364H23.9305H23.9245H23.9187H23.9128H23.907H23.9012H23.8954H23.8897H23.884H23.8783H23.8727H23.8671H23.8615H23.856H23.8505H23.845H23.8396H23.8342H23.8288H23.8234H23.8181H23.8129H23.8076H23.8024H23.7972H23.7921H23.787H23.7819H23.7769H23.7719H23.7669H23.762H23.7571H23.7523H23.7474H23.7427H23.7379H23.7332H23.7285H23.7239H23.7193H23.7148H23.7102H23.7057H23.7013H23.6969H23.6925H23.6882H23.6839H23.6797H23.6755H23.6713H23.6672H23.6631H23.659H23.655H23.651H23.6471H23.6432H23.6394H23.6356H23.6318H23.6281H23.6244H23.6208H23.6172H23.6136H23.6101H23.6066H23.6032H23.5998H23.5965H23.5932H23.59H23.5868H23.5836H23.5805H23.5774H23.5744H23.5714H23.5685H23.5656H23.5627H23.5599H23.5572H23.5545H23.5518H23.5492H23.5466H23.5441H23.5416H23.5392H23.5368H23.5345H23.5322H23.53H23.5278H23.5257H23.5236H23.5216H23.5196H23.5176H23.5157H23.5139H23.5121H23.5104H23.5087H23.507H23.5055H23.5039H23.5024H23.501H23.4996H23.4983H23.497H23.4958H23.4946H23.4935H23.4924H23.4914H23.4905H23.4895H23.4887H23.4879H23.4871H23.4864H23.4858H23.4852H23.4847H23.4842H23.4838H23.4834H23.4831H23.4829H23.4827H23.4825H23.4825L23.4824 6.46387ZM25.2089 7.99575H26.483C26.8195 7.99575 27.0059 8.11473 27.1144 8.25206C27.2309 8.39942 27.2809 8.59824 27.2809 8.78113C27.2809 9.02142 27.2273 9.22681 27.1113 9.36836C27.0028 9.50066 26.808 9.6158 26.4354 9.6158H25.2089V7.99575Z" fill="#2185D0" stroke="#2185D0" stroke-width="0.5"/>
<path d="M32.4623 13.958V9.96038L35.0025 14.089L35.0757 14.208H35.2154H36.7415H36.9915V13.958V6.46387V6.21387H36.7415H35.3631H35.1131V6.46387V10.6112L32.4744 6.33264L32.4011 6.21387H32.2616H30.7847H30.5347V6.46387V13.958V14.208H30.7847H32.2123H32.4623V13.958Z" fill="#2185D0" stroke="#2185D0" stroke-width="0.5"/>
<path d="M39.4612 19.4296H43.6914C44.3209 19.4296 44.8275 18.926 44.8275 18.2964V2.35091C44.8275 1.7214 44.3209 1.21777 43.6914 1.21777H7.40711C6.77753 1.21777 6.27093 1.7214 6.27093 2.35091V18.2474C6.27093 18.8769 6.77753 19.3805 7.40711 19.3805H11.6373V22.0252C11.6373 22.6679 12.153 23.0967 12.6967 23.1569L12.7104 23.1584H12.7242H24.4377V27.9659C23.0772 28.3604 22.0365 29.3972 21.6402 30.7538H8.73203C8.13195 28.6752 6.04307 27.4071 3.90313 27.9149C1.70542 28.4364 0.336698 30.5795 0.862215 32.7791C1.38585 34.9708 3.53667 36.3331 5.7417 35.8099L5.74245 35.8098C7.18851 35.4619 8.3601 34.3978 8.73728 32.971H21.5904C22.1905 35.0496 24.2793 36.3177 26.4193 35.8099L26.42 35.8098C27.8661 35.4619 29.0377 34.3978 29.4149 32.971H42.268C42.8681 35.0496 44.9569 36.3177 47.0969 35.8099C49.2931 35.2888 50.6615 33.1482 50.1388 30.9502C49.7684 29.1154 48.1381 27.81 46.2514 27.81C44.433 27.81 42.8067 29.0227 42.3158 30.7538H29.4582C29.062 29.3972 28.0213 28.3604 26.6608 27.9659V23.1584H38.325C38.968 23.1584 39.3991 22.6455 39.4597 22.102L39.4612 22.0882V22.0743V19.4296ZM8.49406 3.48405H42.5552V17.1633H8.49406V3.48405ZM13.8604 19.3805H37.2381V20.9412H13.8604V19.3805ZM4.7978 33.6976C3.75348 33.6976 2.93081 32.8765 2.93081 31.8379C2.93081 30.7993 3.75348 29.9782 4.7978 29.9782C5.84211 29.9782 6.66479 30.7993 6.66479 31.8379C6.66479 32.8765 5.84211 33.6976 4.7978 33.6976ZM25.5246 33.6976C24.4803 33.6976 23.6576 32.8765 23.6576 31.8379C23.6576 30.7993 24.4803 29.9782 25.5246 29.9782C26.5689 29.9782 27.3916 30.7993 27.3916 31.8379C27.3916 32.8765 26.5689 33.6976 25.5246 33.6976ZM46.2514 33.6976C45.2071 33.6976 44.3844 32.8765 44.3844 31.8379C44.3844 30.7993 45.2071 29.9782 46.2514 29.9782C47.294 29.9782 48.1157 30.7965 48.1184 31.8327C48.0719 32.8827 47.2394 33.6976 46.2514 33.6976Z" fill="#2185D0" stroke="#2185D0" stroke-width="0.5"/>
</svg>
